<svg width="97" height="36" viewBox="0 0 97 36" fill="none" xmlns="http://www.w3.org/2000/svg">
<g clip-path="url(#clip0_162_502)">
<path fill-rule="evenodd" clip-rule="evenodd" d="M17.2298 1.50698V0C13.4958 0.150698 10.0465 1.45674 7.23349 3.54977L12.4409 5.96093C12.7423 6.11163 12.9265 6.42977 12.8763 6.76465C12.826 7.09953 12.5581 7.36744 12.2233 7.41767L2.56186 8.72372C0.937674 11.4363 0 14.6009 0 17.9833C0 21.4493 0.971163 24.6977 2.67907 27.4437L2.94698 27.293C5.37488 26.0037 7.73581 25.3842 10.147 25.3842C11.0512 25.3842 11.9219 25.4679 12.7423 25.6186L13.4121 10.3981H12.8763C12.4577 10.3981 12.106 10.0633 12.106 9.62791C12.106 9.2093 12.4409 8.85767 12.8763 8.85767H14.5507L14.8688 5.22419H14.0819C13.6633 5.22419 13.3116 4.87256 13.3116 4.45395C13.3116 4.03535 13.6465 3.68372 14.0819 3.68372H15.053C15.3209 2.61209 16.1581 1.77488 17.2298 1.50698ZM33.3209 27.427C35.0289 24.6809 36 21.4493 36 17.9833C36 14.6009 35.0623 11.4363 33.4214 8.74047L23.76 7.41767C23.4251 7.36744 23.1572 7.09953 23.107 6.76465C23.0568 6.42977 23.2409 6.09488 23.5423 5.96093L28.7498 3.54977C25.9535 1.45674 22.5042 0.150698 18.7702 0V1.50698C19.8251 1.79163 20.6623 2.61209 20.947 3.68372H21.9182C22.3368 3.68372 22.6884 4.03535 22.6884 4.45395C22.6884 4.87256 22.3535 5.22419 21.9182 5.22419H21.1312L21.4493 8.85767H23.1237C23.5423 8.85767 23.894 9.19256 23.894 9.62791C23.894 10.0465 23.5591 10.3981 23.1237 10.3981H22.5879L23.2577 25.6186C24.0782 25.4679 24.9489 25.3842 25.853 25.3842C28.2642 25.3842 30.6251 26.0037 33.053 27.293L33.3209 27.427Z" fill="#FD9637"/>
<path fill-rule="evenodd" clip-rule="evenodd" d="M28.4148 32.6846C29.7543 31.7301 30.9599 30.5915 31.9981 29.319C27.4771 26.9413 23.7934 27.4604 20.4781 28.8836C20.6841 28.997 20.8838 29.1166 21.0811 29.2348C21.2044 29.3087 21.3268 29.3821 21.4492 29.4529L21.5618 29.5198C23.295 30.5501 24.9329 31.5238 26.5227 32.0483L28.4148 32.6846ZM10.2139 34.225C7.80274 33.0697 5.69297 31.3785 4.01855 29.319C9.66135 26.3385 14.0148 27.9125 17.9832 30.1059C18.732 30.5225 19.4678 30.96 20.1963 31.3931C22.0742 32.5097 23.904 33.5977 25.786 34.225C23.4418 35.3636 20.7962 35.9999 18 35.9999C15.2037 35.9999 12.5581 35.3636 10.2139 34.225Z" fill="#005BAA"/>
<path fill-rule="evenodd" clip-rule="evenodd" d="M76.5986 12H72.8985V29.7148H76.5986V12ZM53.7988 19.9506C54.3646 20.2129 54.885 20.5437 55.3603 20.943C55.8355 21.3422 56.2202 21.8441 56.5144 22.4487C56.8086 23.0646 56.9557 23.8175 56.9557 24.7072C56.9557 26.3498 56.3786 27.6388 55.2132 28.5741C54.0477 29.5095 52.441 29.9772 50.393 29.9772C48.9899 29.9772 47.7792 29.749 46.7722 29.2814C45.7651 28.8137 44.8373 28.1179 44 27.1711L46.4667 24.7072C47.0211 25.3346 47.6321 25.8251 48.2997 26.1787C48.9673 26.5323 49.748 26.7034 50.6306 26.7034C51.434 26.7034 52.0676 26.5551 52.5089 26.2585C52.9502 25.962 53.1765 25.5627 53.1765 25.038C53.1765 24.5589 53.0294 24.1825 52.7352 23.8859C52.441 23.6007 52.0563 23.3498 51.5811 23.1331C51.1058 22.9277 50.5853 22.7224 50.0083 22.5285C49.4312 22.3346 48.8655 22.1065 48.2997 21.8555C47.734 21.6046 47.2135 21.2966 46.7382 20.9087C46.263 20.5323 45.8783 20.0532 45.5841 19.4715C45.2899 18.9011 45.1428 18.1711 45.1428 17.2928C45.1428 16.2319 45.3917 15.3194 45.9009 14.5551C46.4101 13.7909 47.1116 13.2091 48.0168 12.8099C48.922 12.4106 49.963 12.2167 51.1398 12.2167C52.3392 12.2167 53.4254 12.4334 54.4211 12.8555C55.4169 13.2776 56.2315 13.8593 56.8765 14.5893L54.4098 17.0532C53.8893 16.5171 53.3688 16.1179 52.8483 15.8555C52.3279 15.5931 51.7282 15.4677 51.0719 15.4677C50.4156 15.4677 49.8838 15.5931 49.4991 15.8441C49.1144 16.095 48.922 16.4601 48.922 16.9277C48.922 17.3612 49.0691 17.7148 49.3633 17.9886C49.6575 18.2623 50.0422 18.4905 50.5174 18.6844C50.9927 18.8783 51.5132 19.0722 52.0902 19.2661C52.6673 19.4601 53.2331 19.6882 53.7988 19.9506ZM64.6159 17.5894C65.838 17.5894 66.9355 17.8631 67.9086 18.3992C68.8817 18.9354 69.6398 19.6654 70.2056 20.6122C70.7713 21.5475 71.0542 22.597 71.0542 23.7719C71.0542 24.9468 70.7713 25.9962 70.2056 26.943C69.6398 27.8897 68.8817 28.6312 67.9086 29.1787C66.9355 29.7262 65.838 30 64.6159 30C63.4052 30 62.3077 29.7262 61.3346 29.1787C60.3615 28.6312 59.5921 27.8897 59.0263 26.943C58.4606 25.9962 58.1777 24.9468 58.1777 23.7719C58.1777 22.597 58.4606 21.5475 59.0263 20.6236C59.5921 19.6882 60.3502 18.9582 61.3233 18.4106C62.2964 17.8631 63.3939 17.5894 64.6159 17.5894ZM66.019 26.2471C66.415 26.0076 66.7319 25.6768 66.9468 25.2433C67.1731 24.8099 67.275 24.3194 67.275 23.7719C67.275 23.2243 67.1618 22.7338 66.9355 22.3232C66.7092 21.9011 66.4037 21.5817 66.0077 21.3422C65.6117 21.1027 65.1477 20.9886 64.6159 20.9886C64.0954 20.9886 63.6429 21.1027 63.2355 21.3422C62.8395 21.5817 62.5227 21.9125 62.2964 22.3346C62.0701 22.7567 61.9569 23.2471 61.9569 23.7947C61.9569 24.3308 62.0701 24.8099 62.2964 25.2433C62.5227 25.6768 62.8282 26.0076 63.2355 26.2471C63.6429 26.4867 64.0954 26.6008 64.6159 26.6008C65.1477 26.6008 65.6117 26.4867 66.019 26.2471ZM79.2123 17.8631H82.9123V29.7262H79.2123V17.8631ZM81.0793 12.1255C80.5022 12.1255 80.0157 12.3194 79.6423 12.7072C79.2576 13.095 79.0765 13.5855 79.0765 14.1673C79.0765 14.7376 79.2689 15.2167 79.6423 15.616C80.0157 16.0152 80.5022 16.2091 81.0793 16.2091C81.6564 16.2091 82.1316 16.0152 82.505 15.616C82.8784 15.2167 83.0594 14.7376 83.0594 14.1673C83.0594 13.5855 82.8784 13.095 82.505 12.7072C82.1316 12.3194 81.6564 12.1255 81.0793 12.1255ZM94.8384 18.2395C95.506 18.6502 96.0378 19.1977 96.4225 19.8821C96.8185 20.5665 97.0108 21.3194 96.9995 22.1407V29.7262H93.2995V22.962C93.2995 22.3346 93.1072 21.8441 92.7338 21.4563C92.3604 21.0798 91.8738 20.8859 91.2968 20.8859C90.8894 20.8859 90.5387 20.9658 90.2332 21.1369C89.9276 21.308 89.69 21.5475 89.509 21.8669C89.328 22.1863 89.2374 22.5399 89.2374 22.9506V29.7148H85.5374V17.8517H89.2374V18.7871C89.4977 18.5589 89.7805 18.3536 90.0974 18.1825C90.8102 17.8061 91.6249 17.6122 92.5301 17.6122C93.4014 17.6122 94.1708 17.8289 94.8384 18.2395Z" fill="#1A1D21"/>
</g>
<defs>
<clipPath id="clip0_162_502">
<rect width="97" height="36" fill="white"/>
</clipPath>
</defs>
</svg>
